<?xml version="1.0" encoding="UTF-8"?>
<svg id="Lag_5" data-name="Lag 5" xmlns="http://www.w3.org/2000/svg" viewBox="0 0 3000 3000">
  <defs>
    <style>
      .cls-1 {
        fill: #f2f2f2;
        stroke-width: 0px;
      }
    </style>
  </defs>
  <g id="Lag_3" data-name="Lag 3">
    <g id="Lag_4" data-name="Lag 4">
      <g>
        <g>
          <path class="cls-1" d="M996.32,575.29c-47.12-34.95-135.69,4-181.33,38.61-43.6,33.07-66.83,76.46-77.65,96.67-16.9,31.56-25.89,60.38-30.92,81.17-3.79-34.01-5.48-79.95,2.47-133.28,5.06-33.95,13-63.94,21.64-89.44,10.05-29.66,28.41-55.92,52.66-75.74,294.99-241.01,417.82,415,491.83,662.54,87.07,234.93,219.55,429.15-49.15,480.93-139.63,6.33-287.41,3.82-427.46,4.09-49.08,6.34-192.44-24.01-160.14,17,151.09,191.85,123,114.72,198.88,262.51,37.73,73.49-6.34,163.01-87.78,176.88-42.34,7.21-76.76,4.74-97.65-29.53-178.86-293.42-379.17-437.05-202.42-566.67,81.76-59.96,135.59-51.68,250.35-86.97,209.51-64.42,278.11-12.49,321.79-96.63,10.35-19.94,14.26-25.79-71.51-170.08-55.65-93.62,76.41-306.09,77.31-440.65.6-90.42-11.58-117.08-30.92-131.42Z"/>
          <path class="cls-1" d="M719.49,482.7c-3.97,2.51-8.11,4.86-12.36,6.86C470.83,601.05,298.85-25.74,645.31.82c270.59,20.75,272.19,356.67,74.18,481.87Z"/>
          <path class="cls-1" d="M988.21,601.38c82.11,65.56-48.13,354.43-203.38,591.38-130.97,199.89-336.86,349.12-381.94,300.14-11.18-12.15-12.86-34.24-1.6-69.11,14.49-44.87,60.52-101.02,100.67-125.74,141.48-87.11,111.11-124.51,170.49-243.27,3.77-7.54,22.55-45.08,31.14-124.75,16.36-151.82,47.63-239.28,80.58-272.19,90.39-90.29,158.79-92.59,204.04-56.46Z"/>
        </g>
        <polyline class="cls-1" points="1968.46 131.42 1960.52 855.52 1519.28 855.15 1534.28 1514.49 1010.26 1514.49 1010.26 2100.53 449.3 2117.01 449.3 3000 1676.53 3000 2619.26 131.42"/>
      </g>
    </g>
  </g>
</svg>